<?xml version="1.0" encoding="UTF-8"?>
<!DOCTYPE svg PUBLIC "-//W3C//DTD SVG 1.1//EN" "http://www.w3.org/Graphics/SVG/1.1/DTD/svg11.dtd">
<svg width="178mm" height="109mm" viewBox="0 0 17800 10900" version="1.1" xmlns="http://www.w3.org/2000/svg" xmlns:xlink="http://www.w3.org/1999/xlink" stroke-width="28.222" stroke-linejoin="round" xml:space="preserve">
 <path fill="rgb(255,255,255)" stroke="none" d="M 8911,10901 L 0,10901 0,0 17822,0 17822,10901 8911,10901 Z"/>
 <path fill="none" stroke="rgb(217,217,217)" stroke-width="26" stroke-linejoin="round" d="M 8911,10901 L 0,10901 0,0 17822,0 17822,10901 8911,10901 Z"/>
 <path fill="none" stroke="rgb(217,217,217)" stroke-width="26" stroke-linejoin="round" d="M 17467,9460 L 1832,9460"/>
 <path fill="none" stroke="rgb(217,217,217)" stroke-width="26" stroke-linejoin="round" d="M 17467,8695 L 1832,8695"/>
 <path fill="none" stroke="rgb(217,217,217)" stroke-width="26" stroke-linejoin="round" d="M 17467,7931 L 1832,7931"/>
 <path fill="none" stroke="rgb(217,217,217)" stroke-width="26" stroke-linejoin="round" d="M 17467,7168 L 1832,7168"/>
 <path fill="none" stroke="rgb(217,217,217)" stroke-width="26" stroke-linejoin="round" d="M 17467,6404 L 1832,6404"/>
 <path fill="none" stroke="rgb(217,217,217)" stroke-width="26" stroke-linejoin="round" d="M 17467,5641 L 1832,5641"/>
 <path fill="none" stroke="rgb(217,217,217)" stroke-width="26" stroke-linejoin="round" d="M 17467,4877 L 1832,4877"/>
 <path fill="none" stroke="rgb(217,217,217)" stroke-width="26" stroke-linejoin="round" d="M 17467,4113 L 1832,4113"/>
 <path fill="none" stroke="rgb(217,217,217)" stroke-width="26" stroke-linejoin="round" d="M 17467,3350 L 1832,3350"/>
 <path fill="none" stroke="rgb(217,217,217)" stroke-width="26" stroke-linejoin="round" d="M 17467,2586 L 1832,2586"/>
 <path fill="none" stroke="rgb(217,217,217)" stroke-width="26" stroke-linejoin="round" d="M 17467,1822 L 1832,1822"/>
 <path fill="none" stroke="rgb(217,217,217)" stroke-width="26" stroke-linejoin="round" d="M 1832,9460 L 17467,9460"/>
 <path fill="rgb(20,95,130)" stroke="none" d="M 2770,9460 L 4021,9460 4021,9444 2770,9444 2770,9460 Z"/>
 <path fill="rgb(20,95,130)" stroke="none" d="M 5897,9460 L 7147,9460 7147,9001 5897,9001 5897,9460 Z"/>
 <path fill="rgb(20,95,130)" stroke="none" d="M 9023,9460 L 10274,9460 10274,7931 9023,7931 9023,9460 Z"/>
 <path fill="rgb(20,95,130)" stroke="none" d="M 12151,9460 L 13401,9460 13401,7016 12151,7016 12151,9460 Z"/>
 <path fill="rgb(20,95,130)" stroke="none" d="M 15277,9460 L 16528,9460 16528,2738 15277,2738 15277,9460 Z"/>
 <path fill="none" stroke="rgb(232,115,49)" stroke-width="79" stroke-linejoin="round" stroke-linecap="round" d="M 3395,9306 L 6522,9306 9649,9153 12776,9153 15903,6557"/>
 <path fill="rgb(232,115,49)" stroke="none" d="M 3483,9306 L 3483,9303 3483,9299 3483,9295 3482,9291 3481,9287 3480,9284 3479,9280 3478,9276 3477,9273 3475,9269 3473,9266 3472,9262 3470,9259 3467,9256 3465,9253 3463,9250 3460,9247 3458,9244 3455,9241 3452,9239 3449,9237 3446,9234 3443,9232 3439,9230 3436,9228 3432,9227 3429,9225 3425,9224 3422,9222 3418,9221 3414,9220 3411,9220 3407,9219 3403,9219 3399,9218 3395,9218 3391,9218 3388,9219 3384,9219 3380,9220 3376,9220 3373,9221 3369,9222 3365,9224 3362,9225 3358,9227 3355,9228 3351,9230 3348,9232 3345,9234 3342,9237 3339,9239 3336,9241 3333,9244 3330,9247 3328,9250 3325,9253 3323,9256 3321,9259 3319,9262 3317,9266 3316,9269 3314,9273 3313,9276 3311,9280 3310,9284 3309,9287 3309,9291 3308,9295 3308,9299 3307,9303 3307,9306 3307,9310 3308,9314 3308,9318 3309,9322 3309,9325 3310,9329 3311,9333 3313,9336 3314,9340 3316,9344 3317,9347 3319,9350 3321,9354 3323,9357 3325,9360 3328,9363 3330,9366 3333,9369 3336,9371 3339,9374 3342,9376 3345,9378 3348,9381 3351,9383 3355,9384 3358,9386 3362,9388 3365,9389 3369,9390 3373,9391 3376,9392 3380,9393 3384,9394 3388,9394 3391,9394 3395,9394 3399,9394 3403,9394 3407,9394 3411,9393 3414,9392 3418,9391 3422,9390 3425,9389 3429,9388 3432,9386 3436,9384 3439,9383 3443,9381 3446,9378 3449,9376 3452,9374 3455,9371 3458,9369 3460,9366 3463,9363 3465,9360 3467,9357 3470,9354 3472,9350 3473,9347 3475,9344 3477,9340 3478,9336 3479,9333 3480,9329 3481,9325 3482,9322 3483,9318 3483,9314 3483,9310 3483,9306 Z"/>
 <path fill="none" stroke="rgb(232,115,49)" stroke-linejoin="round" d="M 3483,9306 L 3483,9303 3483,9299 3483,9295 3482,9291 3481,9287 3480,9284 3479,9280 3478,9276 3477,9273 3475,9269 3473,9266 3472,9262 3470,9259 3467,9256 3465,9253 3463,9250 3460,9247 3458,9244 3455,9241 3452,9239 3449,9237 3446,9234 3443,9232 3439,9230 3436,9228 3432,9227 3429,9225 3425,9224 3422,9222 3418,9221 3414,9220 3411,9220 3407,9219 3403,9219 3399,9218 3395,9218 3391,9218 3388,9219 3384,9219 3380,9220 3376,9220 3373,9221 3369,9222 3365,9224 3362,9225 3358,9227 3355,9228 3351,9230 3348,9232 3345,9234 3342,9237 3339,9239 3336,9241 3333,9244 3330,9247 3328,9250 3325,9253 3323,9256 3321,9259 3319,9262 3317,9266 3316,9269 3314,9273 3313,9276 3311,9280 3310,9284 3309,9287 3309,9291 3308,9295 3308,9299 3307,9303 3307,9306 3307,9310 3308,9314 3308,9318 3309,9322 3309,9325 3310,9329 3311,9333 3313,9336 3314,9340 3316,9344 3317,9347 3319,9350 3321,9354 3323,9357 3325,9360 3328,9363 3330,9366 3333,9369 3336,9371 3339,9374 3342,9376 3345,9378 3348,9381 3351,9383 3355,9384 3358,9386 3362,9388 3365,9389 3369,9390 3373,9391 3376,9392 3380,9393 3384,9394 3388,9394 3391,9394 3395,9394 3399,9394 3403,9394 3407,9394 3411,9393 3414,9392 3418,9391 3422,9390 3425,9389 3429,9388 3432,9386 3436,9384 3439,9383 3443,9381 3446,9378 3449,9376 3452,9374 3455,9371 3458,9369 3460,9366 3463,9363 3465,9360 3467,9357 3470,9354 3472,9350 3473,9347 3475,9344 3477,9340 3478,9336 3479,9333 3480,9329 3481,9325 3482,9322 3483,9318 3483,9314 3483,9310 3483,9306 Z"/>
 <path fill="rgb(232,115,49)" stroke="none" d="M 6610,9306 L 6610,9303 6610,9299 6609,9295 6609,9291 6608,9287 6607,9284 6606,9280 6605,9276 6603,9273 6602,9269 6600,9266 6598,9262 6596,9259 6594,9256 6592,9253 6589,9250 6587,9247 6584,9244 6581,9241 6578,9239 6575,9237 6572,9234 6569,9232 6566,9230 6563,9228 6559,9227 6556,9225 6552,9224 6548,9222 6545,9221 6541,9220 6537,9220 6533,9219 6530,9219 6526,9218 6522,9218 6518,9218 6514,9219 6510,9219 6507,9220 6503,9220 6499,9221 6495,9222 6492,9224 6488,9225 6485,9227 6481,9228 6478,9230 6475,9232 6471,9234 6468,9237 6465,9239 6462,9241 6460,9244 6457,9247 6454,9250 6452,9253 6450,9256 6448,9259 6446,9262 6444,9266 6442,9269 6441,9273 6439,9276 6438,9280 6437,9284 6436,9287 6435,9291 6435,9295 6434,9299 6434,9303 6434,9306 6434,9310 6434,9314 6435,9318 6435,9322 6436,9325 6437,9329 6438,9333 6439,9336 6441,9340 6442,9344 6444,9347 6446,9350 6448,9354 6450,9357 6452,9360 6454,9363 6457,9366 6460,9369 6462,9371 6465,9374 6468,9376 6471,9378 6475,9381 6478,9383 6481,9384 6485,9386 6488,9388 6492,9389 6495,9390 6499,9391 6503,9392 6507,9393 6510,9394 6514,9394 6518,9394 6522,9394 6526,9394 6530,9394 6533,9394 6537,9393 6541,9392 6545,9391 6548,9390 6552,9389 6556,9388 6559,9386 6563,9384 6566,9383 6569,9381 6572,9378 6575,9376 6578,9374 6581,9371 6584,9369 6587,9366 6589,9363 6592,9360 6594,9357 6596,9354 6598,9350 6600,9347 6602,9344 6603,9340 6605,9336 6606,9333 6607,9329 6608,9325 6609,9322 6609,9318 6610,9314 6610,9310 6610,9306 Z"/>
 <path fill="none" stroke="rgb(232,115,49)" stroke-linejoin="round" d="M 6610,9306 L 6610,9303 6610,9299 6609,9295 6609,9291 6608,9287 6607,9284 6606,9280 6605,9276 6603,9273 6602,9269 6600,9266 6598,9262 6596,9259 6594,9256 6592,9253 6589,9250 6587,9247 6584,9244 6581,9241 6578,9239 6575,9237 6572,9234 6569,9232 6566,9230 6563,9228 6559,9227 6556,9225 6552,9224 6548,9222 6545,9221 6541,9220 6537,9220 6533,9219 6530,9219 6526,9218 6522,9218 6518,9218 6514,9219 6510,9219 6507,9220 6503,9220 6499,9221 6495,9222 6492,9224 6488,9225 6485,9227 6481,9228 6478,9230 6475,9232 6471,9234 6468,9237 6465,9239 6462,9241 6460,9244 6457,9247 6454,9250 6452,9253 6450,9256 6448,9259 6446,9262 6444,9266 6442,9269 6441,9273 6439,9276 6438,9280 6437,9284 6436,9287 6435,9291 6435,9295 6434,9299 6434,9303 6434,9306 6434,9310 6434,9314 6435,9318 6435,9322 6436,9325 6437,9329 6438,9333 6439,9336 6441,9340 6442,9344 6444,9347 6446,9350 6448,9354 6450,9357 6452,9360 6454,9363 6457,9366 6460,9369 6462,9371 6465,9374 6468,9376 6471,9378 6475,9381 6478,9383 6481,9384 6485,9386 6488,9388 6492,9389 6495,9390 6499,9391 6503,9392 6507,9393 6510,9394 6514,9394 6518,9394 6522,9394 6526,9394 6530,9394 6533,9394 6537,9393 6541,9392 6545,9391 6548,9390 6552,9389 6556,9388 6559,9386 6563,9384 6566,9383 6569,9381 6572,9378 6575,9376 6578,9374 6581,9371 6584,9369 6587,9366 6589,9363 6592,9360 6594,9357 6596,9354 6598,9350 6600,9347 6602,9344 6603,9340 6605,9336 6606,9333 6607,9329 6608,9325 6609,9322 6609,9318 6610,9314 6610,9310 6610,9306 Z"/>
 <path fill="rgb(232,115,49)" stroke="none" d="M 9737,9153 L 9736,9149 9736,9146 9736,9142 9735,9138 9734,9134 9734,9130 9732,9127 9731,9123 9730,9120 9728,9116 9727,9113 9725,9109 9723,9106 9721,9103 9718,9100 9716,9097 9713,9094 9711,9092 9708,9089 9705,9087 9702,9084 9699,9082 9696,9080 9693,9078 9689,9076 9686,9075 9682,9073 9679,9072 9675,9070 9671,9069 9668,9068 9664,9068 9660,9067 9656,9067 9652,9066 9649,9066 9645,9066 9641,9067 9637,9067 9633,9068 9629,9068 9626,9069 9622,9070 9618,9072 9615,9073 9611,9075 9608,9076 9605,9078 9601,9080 9598,9082 9595,9084 9592,9087 9589,9089 9586,9092 9584,9094 9581,9097 9579,9100 9576,9103 9574,9106 9572,9109 9571,9113 9570,9116 9568,9120 9567,9123 9566,9127 9564,9130 9564,9134 9563,9138 9562,9142 9562,9146 9562,9149 9562,9153 9562,9157 9562,9161 9562,9165 9563,9169 9564,9172 9564,9176 9566,9180 9567,9183 9568,9187 9570,9190 9571,9194 9572,9197 9574,9201 9576,9204 9579,9207 9581,9210 9584,9213 9586,9215 9589,9218 9592,9221 9595,9223 9598,9225 9601,9227 9605,9229 9608,9231 9611,9233 9615,9235 9618,9236 9622,9237 9626,9238 9629,9239 9633,9240 9637,9241 9641,9241 9645,9241 9649,9241 9652,9241 9656,9241 9660,9241 9664,9240 9668,9239 9671,9238 9675,9237 9679,9236 9682,9235 9686,9233 9689,9231 9693,9229 9696,9227 9699,9225 9702,9223 9705,9221 9708,9218 9711,9215 9713,9213 9716,9210 9718,9207 9721,9204 9723,9201 9725,9197 9727,9194 9728,9190 9730,9187 9731,9183 9732,9180 9734,9176 9734,9172 9735,9169 9736,9165 9736,9161 9736,9157 9737,9153 Z"/>
 <path fill="none" stroke="rgb(232,115,49)" stroke-linejoin="round" d="M 9737,9153 L 9736,9149 9736,9146 9736,9142 9735,9138 9734,9134 9734,9130 9732,9127 9731,9123 9730,9120 9728,9116 9727,9113 9725,9109 9723,9106 9721,9103 9718,9100 9716,9097 9713,9094 9711,9092 9708,9089 9705,9087 9702,9084 9699,9082 9696,9080 9693,9078 9689,9076 9686,9075 9682,9073 9679,9072 9675,9070 9671,9069 9668,9068 9664,9068 9660,9067 9656,9067 9652,9066 9649,9066 9645,9066 9641,9067 9637,9067 9633,9068 9629,9068 9626,9069 9622,9070 9618,9072 9615,9073 9611,9075 9608,9076 9605,9078 9601,9080 9598,9082 9595,9084 9592,9087 9589,9089 9586,9092 9584,9094 9581,9097 9579,9100 9576,9103 9574,9106 9572,9109 9571,9113 9570,9116 9568,9120 9567,9123 9566,9127 9564,9130 9564,9134 9563,9138 9562,9142 9562,9146 9562,9149 9562,9153 9562,9157 9562,9161 9562,9165 9563,9169 9564,9172 9564,9176 9566,9180 9567,9183 9568,9187 9570,9190 9571,9194 9572,9197 9574,9201 9576,9204 9579,9207 9581,9210 9584,9213 9586,9215 9589,9218 9592,9221 9595,9223 9598,9225 9601,9227 9605,9229 9608,9231 9611,9233 9615,9235 9618,9236 9622,9237 9626,9238 9629,9239 9633,9240 9637,9241 9641,9241 9645,9241 9649,9241 9652,9241 9656,9241 9660,9241 9664,9240 9668,9239 9671,9238 9675,9237 9679,9236 9682,9235 9686,9233 9689,9231 9693,9229 9696,9227 9699,9225 9702,9223 9705,9221 9708,9218 9711,9215 9713,9213 9716,9210 9718,9207 9721,9204 9723,9201 9725,9197 9727,9194 9728,9190 9730,9187 9731,9183 9732,9180 9734,9176 9734,9172 9735,9169 9736,9165 9736,9161 9736,9157 9737,9153 Z"/>
 <path fill="rgb(232,115,49)" stroke="none" d="M 12864,9153 L 12864,9149 12864,9146 12863,9142 12863,9138 12862,9134 12861,9130 12860,9127 12859,9123 12857,9120 12856,9116 12854,9113 12852,9109 12850,9106 12848,9103 12846,9100 12844,9097 12841,9094 12838,9092 12836,9089 12833,9087 12830,9084 12827,9082 12823,9080 12820,9078 12817,9076 12813,9075 12810,9073 12806,9072 12803,9070 12799,9069 12795,9068 12791,9068 12788,9067 12784,9067 12780,9066 12776,9066 12772,9066 12768,9067 12765,9067 12761,9068 12757,9068 12753,9069 12750,9070 12746,9072 12742,9073 12739,9075 12735,9076 12732,9078 12729,9080 12726,9082 12723,9084 12720,9087 12717,9089 12714,9092 12711,9094 12709,9097 12706,9100 12704,9103 12702,9106 12700,9109 12698,9113 12696,9116 12695,9120 12693,9123 12692,9127 12691,9130 12690,9134 12689,9138 12689,9142 12688,9146 12688,9149 12688,9153 12688,9157 12688,9161 12689,9165 12689,9169 12690,9172 12691,9176 12692,9180 12693,9183 12695,9187 12696,9190 12698,9194 12700,9197 12702,9201 12704,9204 12706,9207 12709,9210 12711,9213 12714,9215 12717,9218 12720,9221 12723,9223 12726,9225 12729,9227 12732,9229 12735,9231 12739,9233 12742,9235 12746,9236 12750,9237 12753,9238 12757,9239 12761,9240 12765,9241 12768,9241 12772,9241 12776,9241 12780,9241 12784,9241 12788,9241 12791,9240 12795,9239 12799,9238 12803,9237 12806,9236 12810,9235 12813,9233 12817,9231 12820,9229 12823,9227 12827,9225 12830,9223 12833,9221 12836,9218 12838,9215 12841,9213 12844,9210 12846,9207 12848,9204 12850,9201 12852,9197 12854,9194 12856,9190 12857,9187 12859,9183 12860,9180 12861,9176 12862,9172 12863,9169 12863,9165 12864,9161 12864,9157 12864,9153 Z"/>
 <path fill="none" stroke="rgb(232,115,49)" stroke-linejoin="round" d="M 12864,9153 L 12864,9149 12864,9146 12863,9142 12863,9138 12862,9134 12861,9130 12860,9127 12859,9123 12857,9120 12856,9116 12854,9113 12852,9109 12850,9106 12848,9103 12846,9100 12844,9097 12841,9094 12838,9092 12836,9089 12833,9087 12830,9084 12827,9082 12823,9080 12820,9078 12817,9076 12813,9075 12810,9073 12806,9072 12803,9070 12799,9069 12795,9068 12791,9068 12788,9067 12784,9067 12780,9066 12776,9066 12772,9066 12768,9067 12765,9067 12761,9068 12757,9068 12753,9069 12750,9070 12746,9072 12742,9073 12739,9075 12735,9076 12732,9078 12729,9080 12726,9082 12723,9084 12720,9087 12717,9089 12714,9092 12711,9094 12709,9097 12706,9100 12704,9103 12702,9106 12700,9109 12698,9113 12696,9116 12695,9120 12693,9123 12692,9127 12691,9130 12690,9134 12689,9138 12689,9142 12688,9146 12688,9149 12688,9153 12688,9157 12688,9161 12689,9165 12689,9169 12690,9172 12691,9176 12692,9180 12693,9183 12695,9187 12696,9190 12698,9194 12700,9197 12702,9201 12704,9204 12706,9207 12709,9210 12711,9213 12714,9215 12717,9218 12720,9221 12723,9223 12726,9225 12729,9227 12732,9229 12735,9231 12739,9233 12742,9235 12746,9236 12750,9237 12753,9238 12757,9239 12761,9240 12765,9241 12768,9241 12772,9241 12776,9241 12780,9241 12784,9241 12788,9241 12791,9240 12795,9239 12799,9238 12803,9237 12806,9236 12810,9235 12813,9233 12817,9231 12820,9229 12823,9227 12827,9225 12830,9223 12833,9221 12836,9218 12838,9215 12841,9213 12844,9210 12846,9207 12848,9204 12850,9201 12852,9197 12854,9194 12856,9190 12857,9187 12859,9183 12860,9180 12861,9176 12862,9172 12863,9169 12863,9165 12864,9161 12864,9157 12864,9153 Z"/>
 <path fill="rgb(232,115,49)" stroke="none" d="M 15991,6557 L 15991,6553 15990,6550 15990,6546 15989,6542 15989,6538 15988,6534 15987,6531 15985,6527 15984,6524 15982,6520 15981,6517 15979,6513 15977,6510 15975,6507 15973,6504 15970,6501 15968,6498 15965,6495 15962,6492 15959,6490 15956,6487 15953,6485 15950,6483 15947,6481 15943,6479 15940,6477 15936,6476 15933,6475 15929,6473 15925,6472 15922,6471 15918,6471 15914,6470 15910,6470 15907,6469 15903,6469 15899,6469 15895,6470 15891,6470 15887,6471 15884,6471 15880,6472 15876,6473 15873,6475 15869,6476 15866,6477 15862,6479 15859,6481 15855,6483 15852,6485 15849,6487 15846,6490 15843,6492 15840,6495 15838,6498 15835,6501 15833,6504 15831,6507 15828,6510 15826,6513 15825,6517 15823,6520 15821,6524 15820,6527 15819,6531 15818,6534 15817,6538 15816,6542 15815,6546 15815,6550 15815,6553 15815,6557 15815,6561 15815,6565 15815,6569 15816,6573 15817,6576 15818,6580 15819,6584 15820,6587 15821,6591 15823,6594 15825,6598 15826,6601 15828,6605 15831,6608 15833,6611 15835,6614 15838,6617 15840,6619 15843,6622 15846,6625 15849,6627 15852,6629 15855,6631 15859,6633 15862,6635 15866,6637 15869,6639 15873,6640 15876,6641 15880,6642 15884,6643 15887,6644 15891,6644 15895,6645 15899,6645 15903,6645 15907,6645 15910,6645 15914,6644 15918,6644 15922,6643 15925,6642 15929,6641 15933,6640 15936,6639 15940,6637 15943,6635 15947,6633 15950,6631 15953,6629 15956,6627 15959,6625 15962,6622 15965,6619 15968,6617 15970,6614 15973,6611 15975,6608 15977,6605 15979,6601 15981,6598 15982,6594 15984,6591 15985,6587 15987,6584 15988,6580 15989,6576 15989,6573 15990,6569 15990,6565 15991,6561 15991,6557 Z"/>
 <path fill="none" stroke="rgb(232,115,49)" stroke-linejoin="round" d="M 15991,6557 L 15991,6553 15990,6550 15990,6546 15989,6542 15989,6538 15988,6534 15987,6531 15985,6527 15984,6524 15982,6520 15981,6517 15979,6513 15977,6510 15975,6507 15973,6504 15970,6501 15968,6498 15965,6495 15962,6492 15959,6490 15956,6487 15953,6485 15950,6483 15947,6481 15943,6479 15940,6477 15936,6476 15933,6475 15929,6473 15925,6472 15922,6471 15918,6471 15914,6470 15910,6470 15907,6469 15903,6469 15899,6469 15895,6470 15891,6470 15887,6471 15884,6471 15880,6472 15876,6473 15873,6475 15869,6476 15866,6477 15862,6479 15859,6481 15855,6483 15852,6485 15849,6487 15846,6490 15843,6492 15840,6495 15838,6498 15835,6501 15833,6504 15831,6507 15828,6510 15826,6513 15825,6517 15823,6520 15821,6524 15820,6527 15819,6531 15818,6534 15817,6538 15816,6542 15815,6546 15815,6550 15815,6553 15815,6557 15815,6561 15815,6565 15815,6569 15816,6573 15817,6576 15818,6580 15819,6584 15820,6587 15821,6591 15823,6594 15825,6598 15826,6601 15828,6605 15831,6608 15833,6611 15835,6614 15838,6617 15840,6619 15843,6622 15846,6625 15849,6627 15852,6629 15855,6631 15859,6633 15862,6635 15866,6637 15869,6639 15873,6640 15876,6641 15880,6642 15884,6643 15887,6644 15891,6644 15895,6645 15899,6645 15903,6645 15907,6645 15910,6645 15914,6644 15918,6644 15922,6643 15925,6642 15929,6641 15933,6640 15936,6639 15940,6637 15943,6635 15947,6633 15950,6631 15953,6629 15956,6627 15959,6625 15962,6622 15965,6619 15968,6617 15970,6614 15973,6611 15975,6608 15977,6605 15979,6601 15981,6598 15982,6594 15984,6591 15985,6587 15987,6584 15988,6580 15989,6576 15989,6573 15990,6569 15990,6565 15991,6561 15991,6557 Z"/>
 <text class="SVGTextShape"><tspan class="TextParagraph"><tspan class="TextPosition" x="2972" y="9850"><tspan font-family="Times New Roman, serif" font-size="317px" font-weight="400" fill="rgb(89,89,89)" stroke="none" style="white-space: pre">10&apos;000</tspan></tspan></tspan></text>
 <text class="SVGTextShape"><tspan class="TextParagraph"><tspan class="TextPosition" x="6099" y="9850"><tspan font-family="Times New Roman, serif" font-size="317px" font-weight="400" fill="rgb(89,89,89)" stroke="none" style="white-space: pre">50&apos;000</tspan></tspan></tspan></text>
 <text class="SVGTextShape"><tspan class="TextParagraph"><tspan class="TextPosition" x="9147" y="9850"><tspan font-family="Times New Roman, serif" font-size="317px" font-weight="400" fill="rgb(89,89,89)" stroke="none" style="white-space: pre">100&apos;000</tspan></tspan></tspan></text>
 <text class="SVGTextShape"><tspan class="TextParagraph"><tspan class="TextPosition" x="12273" y="9850"><tspan font-family="Times New Roman, serif" font-size="317px" font-weight="400" fill="rgb(89,89,89)" stroke="none" style="white-space: pre">200&apos;000</tspan></tspan></tspan></text>
 <text class="SVGTextShape"><tspan class="TextParagraph"><tspan class="TextPosition" x="15401" y="9850"><tspan font-family="Times New Roman, serif" font-size="317px" font-weight="400" fill="rgb(89,89,89)" stroke="none" style="white-space: pre">500&apos;000</tspan></tspan></tspan></text>
 <text class="SVGTextShape"><tspan class="TextParagraph"><tspan class="TextPosition" x="1574" y="9565"><tspan font-family="Times New Roman, serif" font-size="317px" font-weight="400" fill="rgb(89,89,89)" stroke="none" style="white-space: pre">0</tspan></tspan></tspan></text>
 <text class="SVGTextShape"><tspan class="TextParagraph"><tspan class="TextPosition" x="1574" y="8801"><tspan font-family="Times New Roman, serif" font-size="317px" font-weight="400" fill="rgb(89,89,89)" stroke="none" style="white-space: pre">5</tspan></tspan></tspan></text>
 <text class="SVGTextShape"><tspan class="TextParagraph"><tspan class="TextPosition" x="1415" y="8037"><tspan font-family="Times New Roman, serif" font-size="317px" font-weight="400" fill="rgb(89,89,89)" stroke="none" style="white-space: pre">10</tspan></tspan></tspan></text>
 <text class="SVGTextShape"><tspan class="TextParagraph"><tspan class="TextPosition" x="1415" y="7274"><tspan font-family="Times New Roman, serif" font-size="317px" font-weight="400" fill="rgb(89,89,89)" stroke="none" style="white-space: pre">15</tspan></tspan></tspan></text>
 <text class="SVGTextShape"><tspan class="TextParagraph"><tspan class="TextPosition" x="1415" y="6510"><tspan font-family="Times New Roman, serif" font-size="317px" font-weight="400" fill="rgb(89,89,89)" stroke="none" style="white-space: pre">20</tspan></tspan></tspan></text>
 <text class="SVGTextShape"><tspan class="TextParagraph"><tspan class="TextPosition" x="1415" y="5747"><tspan font-family="Times New Roman, serif" font-size="317px" font-weight="400" fill="rgb(89,89,89)" stroke="none" style="white-space: pre">25</tspan></tspan></tspan></text>
 <text class="SVGTextShape"><tspan class="TextParagraph"><tspan class="TextPosition" x="1415" y="4983"><tspan font-family="Times New Roman, serif" font-size="317px" font-weight="400" fill="rgb(89,89,89)" stroke="none" style="white-space: pre">30</tspan></tspan></tspan></text>
 <text class="SVGTextShape"><tspan class="TextParagraph"><tspan class="TextPosition" x="1415" y="4219"><tspan font-family="Times New Roman, serif" font-size="317px" font-weight="400" fill="rgb(89,89,89)" stroke="none" style="white-space: pre">35</tspan></tspan></tspan></text>
 <text class="SVGTextShape"><tspan class="TextParagraph"><tspan class="TextPosition" x="1415" y="3455"><tspan font-family="Times New Roman, serif" font-size="317px" font-weight="400" fill="rgb(89,89,89)" stroke="none" style="white-space: pre">40</tspan></tspan></tspan></text>
 <text class="SVGTextShape"><tspan class="TextParagraph"><tspan class="TextPosition" x="1415" y="2691"><tspan font-family="Times New Roman, serif" font-size="317px" font-weight="400" fill="rgb(89,89,89)" stroke="none" style="white-space: pre">45</tspan></tspan></tspan></text>
 <text class="SVGTextShape"><tspan class="TextParagraph"><tspan class="TextPosition" x="1415" y="1928"><tspan font-family="Times New Roman, serif" font-size="317px" font-weight="400" fill="rgb(89,89,89)" stroke="none" style="white-space: pre">50</tspan></tspan></tspan></text>
 <text class="SVGTextShape"><tspan class="TextParagraph"><tspan class="TextPosition" x="5013" y="1097"><tspan font-family="Times New Roman, serif" font-size="633px" font-weight="700" fill="rgb(89,89,89)" stroke="none" style="white-space: pre">Benchmark: Low Array Size</tspan></tspan></tspan></text>
 <path fill="rgb(20,95,130)" stroke="none" d="M 7168,10710 L 6769,10710 6769,10520 7568,10520 7568,10710 7168,10710 Z"/>
 <path fill="none" stroke="rgb(232,115,49)" stroke-width="79" stroke-linejoin="round" stroke-linecap="round" d="M 9199,10615 L 9998,10615"/>
 <path fill="rgb(232,115,49)" stroke="none" d="M 9693,10615 L 9692,10610 9692,10606 9692,10602 9691,10598 9690,10594 9689,10590 9688,10586 9687,10582 9685,10578 9684,10574 9682,10571 9680,10567 9678,10563 9675,10560 9673,10557 9670,10553 9668,10550 9665,10547 9662,10544 9659,10542 9655,10539 9652,10537 9649,10534 9645,10532 9641,10530 9638,10528 9634,10527 9630,10525 9626,10524 9622,10523 9618,10522 9614,10521 9610,10520 9606,10520 9602,10520 9598,10520 9593,10520 9589,10520 9585,10520 9581,10521 9577,10522 9573,10523 9570,10524 9566,10525 9562,10527 9558,10528 9555,10530 9551,10532 9547,10534 9544,10537 9541,10539 9537,10542 9534,10544 9531,10547 9528,10550 9526,10553 9523,10557 9521,10560 9518,10563 9516,10567 9514,10571 9512,10574 9511,10578 9509,10582 9508,10586 9507,10590 9506,10594 9505,10598 9504,10602 9504,10606 9504,10610 9504,10615 9504,10619 9504,10623 9504,10627 9505,10631 9506,10635 9507,10639 9508,10643 9509,10647 9511,10651 9512,10655 9514,10658 9516,10662 9518,10666 9521,10669 9523,10672 9526,10676 9528,10679 9531,10682 9534,10685 9537,10687 9541,10690 9544,10692 9547,10695 9551,10697 9555,10699 9558,10701 9562,10702 9566,10704 9570,10705 9573,10706 9577,10707 9581,10708 9585,10709 9589,10709 9593,10709 9598,10710 9602,10709 9606,10709 9610,10709 9614,10708 9618,10707 9622,10706 9626,10705 9630,10704 9634,10702 9638,10701 9641,10699 9645,10697 9649,10695 9652,10692 9655,10690 9659,10687 9662,10685 9665,10682 9668,10679 9670,10676 9673,10672 9675,10669 9678,10666 9680,10662 9682,10658 9684,10655 9685,10651 9687,10647 9688,10643 9689,10639 9690,10635 9691,10631 9692,10627 9692,10623 9692,10619 9693,10615 Z"/>
 <path fill="none" stroke="rgb(232,115,49)" stroke-linejoin="round" d="M 9693,10615 L 9692,10610 9692,10606 9692,10602 9691,10598 9690,10594 9689,10590 9688,10586 9687,10582 9685,10578 9684,10574 9682,10571 9680,10567 9678,10563 9675,10560 9673,10557 9670,10553 9668,10550 9665,10547 9662,10544 9659,10542 9655,10539 9652,10537 9649,10534 9645,10532 9641,10530 9638,10528 9634,10527 9630,10525 9626,10524 9622,10523 9618,10522 9614,10521 9610,10520 9606,10520 9602,10520 9598,10520 9593,10520 9589,10520 9585,10520 9581,10521 9577,10522 9573,10523 9570,10524 9566,10525 9562,10527 9558,10528 9555,10530 9551,10532 9547,10534 9544,10537 9541,10539 9537,10542 9534,10544 9531,10547 9528,10550 9526,10553 9523,10557 9521,10560 9518,10563 9516,10567 9514,10571 9512,10574 9511,10578 9509,10582 9508,10586 9507,10590 9506,10594 9505,10598 9504,10602 9504,10606 9504,10610 9504,10615 9504,10619 9504,10623 9504,10627 9505,10631 9506,10635 9507,10639 9508,10643 9509,10647 9511,10651 9512,10655 9514,10658 9516,10662 9518,10666 9521,10669 9523,10672 9526,10676 9528,10679 9531,10682 9534,10685 9537,10687 9541,10690 9544,10692 9547,10695 9551,10697 9555,10699 9558,10701 9562,10702 9566,10704 9570,10705 9573,10706 9577,10707 9581,10708 9585,10709 9589,10709 9593,10709 9598,10710 9602,10709 9606,10709 9610,10709 9614,10708 9618,10707 9622,10706 9626,10705 9630,10704 9634,10702 9638,10701 9641,10699 9645,10697 9649,10695 9652,10692 9655,10690 9659,10687 9662,10685 9665,10682 9668,10679 9670,10676 9673,10672 9675,10669 9678,10666 9680,10662 9682,10658 9684,10655 9685,10651 9687,10647 9688,10643 9689,10639 9690,10635 9691,10631 9692,10627 9692,10623 9692,10619 9693,10615 Z"/>
 <text class="SVGTextShape"><tspan class="TextParagraph"><tspan class="TextPosition" x="7667" y="10721"><tspan font-family="Times New Roman, serif" font-size="317px" font-weight="400" fill="rgb(89,89,89)" stroke="none" style="white-space: pre">Sequential</tspan></tspan></tspan></text>
 <text class="SVGTextShape"><tspan class="TextParagraph"><tspan class="TextPosition" x="10098" y="10721"><tspan font-family="Times New Roman, serif" font-size="317px" font-weight="400" fill="rgb(89,89,89)" stroke="none" style="white-space: pre">Parallel</tspan></tspan></tspan></text>
 <text class="SVGTextShape" transform="rotate(-90 -53721 -4045)"><tspan class="TextParagraph"><tspan class="TextPosition" x="874" y="5981"><tspan font-family="Times New Roman, serif" font-size="352px" font-weight="400" fill="rgb(89,89,89)" stroke="none" style="white-space: pre">ms</tspan></tspan></tspan></text>
</svg>