<?xml version="1.0" encoding="UTF-8"?>
<!DOCTYPE svg PUBLIC "-//W3C//DTD SVG 1.1//EN" "http://www.w3.org/Graphics/SVG/1.1/DTD/svg11.dtd">
<svg width="194mm" height="110mm" viewBox="0 0 19400 11000" version="1.1" xmlns="http://www.w3.org/2000/svg" xmlns:xlink="http://www.w3.org/1999/xlink" stroke-width="28.222" stroke-linejoin="round" xml:space="preserve">
 <path fill="rgb(255,255,255)" stroke="none" d="M 9694,10927 L 0,10927 0,0 19388,0 19388,10927 9694,10927 Z"/>
 <path fill="none" stroke="rgb(217,217,217)" stroke-width="26" stroke-linejoin="round" d="M 9694,10927 L 0,10927 0,0 19388,0 19388,10927 9694,10927 Z"/>
 <path fill="none" stroke="rgb(217,217,217)" stroke-width="26" stroke-linejoin="round" d="M 19001,9485 L 1864,9485"/>
 <path fill="none" stroke="rgb(217,217,217)" stroke-width="26" stroke-linejoin="round" d="M 19001,8937 L 1864,8937"/>
 <path fill="none" stroke="rgb(217,217,217)" stroke-width="26" stroke-linejoin="round" d="M 19001,8390 L 1864,8390"/>
 <path fill="none" stroke="rgb(217,217,217)" stroke-width="26" stroke-linejoin="round" d="M 19001,7843 L 1864,7843"/>
 <path fill="none" stroke="rgb(217,217,217)" stroke-width="26" stroke-linejoin="round" d="M 19001,7296 L 1864,7296"/>
 <path fill="none" stroke="rgb(217,217,217)" stroke-width="26" stroke-linejoin="round" d="M 19001,6748 L 1864,6748"/>
 <path fill="none" stroke="rgb(217,217,217)" stroke-width="26" stroke-linejoin="round" d="M 19001,6202 L 1864,6202"/>
 <path fill="none" stroke="rgb(217,217,217)" stroke-width="26" stroke-linejoin="round" d="M 19001,5654 L 1864,5654"/>
 <path fill="none" stroke="rgb(217,217,217)" stroke-width="26" stroke-linejoin="round" d="M 19001,5107 L 1864,5107"/>
 <path fill="none" stroke="rgb(217,217,217)" stroke-width="26" stroke-linejoin="round" d="M 19001,4560 L 1864,4560"/>
 <path fill="none" stroke="rgb(217,217,217)" stroke-width="26" stroke-linejoin="round" d="M 19001,4013 L 1864,4013"/>
 <path fill="none" stroke="rgb(217,217,217)" stroke-width="26" stroke-linejoin="round" d="M 19001,3465 L 1864,3465"/>
 <path fill="none" stroke="rgb(217,217,217)" stroke-width="26" stroke-linejoin="round" d="M 19001,2919 L 1864,2919"/>
 <path fill="none" stroke="rgb(217,217,217)" stroke-width="26" stroke-linejoin="round" d="M 19001,2371 L 1864,2371"/>
 <path fill="none" stroke="rgb(217,217,217)" stroke-width="26" stroke-linejoin="round" d="M 19001,1824 L 1864,1824"/>
 <path fill="none" stroke="rgb(217,217,217)" stroke-width="26" stroke-linejoin="round" d="M 1864,9485 L 19001,9485"/>
 <path fill="rgb(20,95,130)" stroke="none" d="M 3150,9485 L 4863,9485 4863,9372 3150,9372 3150,9485 Z"/>
 <path fill="rgb(20,95,130)" stroke="none" d="M 7434,9485 L 9147,9485 9147,8876 7434,8876 7434,9485 Z"/>
 <path fill="rgb(20,95,130)" stroke="none" d="M 11718,9485 L 13431,9485 13431,8222 11718,8222 11718,9485 Z"/>
 <path fill="rgb(20,95,130)" stroke="none" d="M 16002,9485 L 17715,9485 17715,2678 16002,2678 16002,9485 Z"/>
 <path fill="none" stroke="rgb(232,115,49)" stroke-width="79" stroke-linejoin="round" stroke-linecap="round" d="M 4006,9461 L 8290,9356 12574,9221 16859,7728"/>
 <path fill="rgb(232,115,49)" stroke="none" d="M 4094,9461 L 4093,9457 4093,9453 4093,9449 4092,9446 4091,9442 4091,9438 4089,9434 4088,9431 4087,9427 4085,9424 4084,9420 4082,9417 4080,9414 4078,9410 4075,9407 4073,9404 4070,9401 4068,9399 4065,9396 4062,9393 4059,9391 4056,9389 4053,9387 4050,9385 4046,9383 4043,9381 4039,9380 4036,9378 4032,9377 4028,9376 4025,9375 4021,9374 4017,9374 4013,9373 4009,9373 4006,9373 4002,9373 3998,9373 3994,9374 3990,9374 3986,9375 3983,9376 3979,9377 3975,9378 3972,9380 3968,9381 3965,9383 3962,9385 3958,9387 3955,9389 3952,9391 3949,9393 3946,9396 3943,9399 3942,9401 3939,9404 3937,9407 3934,9410 3932,9414 3930,9417 3928,9420 3927,9424 3925,9427 3924,9431 3923,9434 3921,9438 3921,9442 3920,9446 3919,9449 3919,9453 3919,9457 3919,9461 3919,9465 3919,9468 3919,9472 3920,9476 3921,9480 3921,9484 3923,9487 3924,9491 3925,9494 3927,9498 3928,9501 3930,9505 3932,9508 3934,9511 3937,9514 3939,9517 3942,9520 3943,9522 3946,9525 3949,9527 3952,9530 3955,9532 3958,9534 3962,9536 3965,9538 3968,9540 3972,9541 3975,9542 3979,9544 3983,9545 3986,9546 3990,9546 3994,9547 3998,9547 4002,9548 4006,9548 4009,9548 4013,9547 4017,9547 4021,9546 4025,9546 4028,9545 4032,9544 4036,9542 4039,9541 4043,9540 4046,9538 4050,9536 4053,9534 4056,9532 4059,9530 4062,9527 4065,9525 4068,9522 4070,9520 4073,9517 4075,9514 4078,9511 4080,9508 4082,9505 4084,9501 4085,9498 4087,9494 4088,9491 4089,9487 4091,9484 4091,9480 4092,9476 4093,9472 4093,9468 4093,9465 4094,9461 Z"/>
 <path fill="none" stroke="rgb(232,115,49)" stroke-linejoin="round" d="M 4094,9461 L 4093,9457 4093,9453 4093,9449 4092,9446 4091,9442 4091,9438 4089,9434 4088,9431 4087,9427 4085,9424 4084,9420 4082,9417 4080,9414 4078,9410 4075,9407 4073,9404 4070,9401 4068,9399 4065,9396 4062,9393 4059,9391 4056,9389 4053,9387 4050,9385 4046,9383 4043,9381 4039,9380 4036,9378 4032,9377 4028,9376 4025,9375 4021,9374 4017,9374 4013,9373 4009,9373 4006,9373 4002,9373 3998,9373 3994,9374 3990,9374 3986,9375 3983,9376 3979,9377 3975,9378 3972,9380 3968,9381 3965,9383 3962,9385 3958,9387 3955,9389 3952,9391 3949,9393 3946,9396 3943,9399 3942,9401 3939,9404 3937,9407 3934,9410 3932,9414 3930,9417 3928,9420 3927,9424 3925,9427 3924,9431 3923,9434 3921,9438 3921,9442 3920,9446 3919,9449 3919,9453 3919,9457 3919,9461 3919,9465 3919,9468 3919,9472 3920,9476 3921,9480 3921,9484 3923,9487 3924,9491 3925,9494 3927,9498 3928,9501 3930,9505 3932,9508 3934,9511 3937,9514 3939,9517 3942,9520 3943,9522 3946,9525 3949,9527 3952,9530 3955,9532 3958,9534 3962,9536 3965,9538 3968,9540 3972,9541 3975,9542 3979,9544 3983,9545 3986,9546 3990,9546 3994,9547 3998,9547 4002,9548 4006,9548 4009,9548 4013,9547 4017,9547 4021,9546 4025,9546 4028,9545 4032,9544 4036,9542 4039,9541 4043,9540 4046,9538 4050,9536 4053,9534 4056,9532 4059,9530 4062,9527 4065,9525 4068,9522 4070,9520 4073,9517 4075,9514 4078,9511 4080,9508 4082,9505 4084,9501 4085,9498 4087,9494 4088,9491 4089,9487 4091,9484 4091,9480 4092,9476 4093,9472 4093,9468 4093,9465 4094,9461 Z"/>
 <path fill="rgb(232,115,49)" stroke="none" d="M 8378,9356 L 8377,9352 8377,9348 8377,9345 8376,9341 8375,9337 8375,9333 8373,9330 8372,9326 8371,9322 8369,9319 8368,9316 8366,9312 8364,9309 8362,9306 8359,9303 8357,9300 8354,9297 8352,9294 8349,9291 8346,9289 8343,9286 8340,9284 8337,9282 8334,9280 8330,9278 8327,9276 8323,9275 8320,9273 8316,9272 8312,9271 8309,9270 8305,9269 8301,9269 8297,9268 8293,9268 8290,9268 8286,9268 8282,9268 8278,9269 8274,9269 8270,9270 8267,9271 8263,9272 8259,9273 8256,9275 8253,9276 8250,9278 8247,9280 8243,9282 8240,9284 8237,9286 8234,9289 8231,9291 8228,9294 8226,9297 8223,9300 8221,9303 8218,9306 8216,9309 8214,9312 8212,9316 8211,9319 8209,9322 8208,9326 8207,9330 8205,9333 8205,9337 8204,9341 8203,9345 8203,9348 8203,9352 8203,9356 8203,9360 8203,9364 8203,9368 8204,9371 8205,9375 8205,9379 8207,9383 8208,9386 8209,9390 8211,9393 8212,9397 8214,9400 8216,9403 8218,9407 8221,9410 8223,9413 8226,9416 8228,9418 8231,9421 8234,9424 8237,9426 8240,9428 8243,9430 8247,9432 8250,9434 8253,9436 8256,9437 8259,9439 8263,9440 8267,9441 8270,9442 8274,9443 8278,9443 8282,9444 8286,9444 8290,9444 8293,9444 8297,9444 8301,9443 8305,9443 8309,9442 8312,9441 8316,9440 8320,9439 8323,9437 8327,9436 8330,9434 8334,9432 8337,9430 8340,9428 8343,9426 8346,9424 8349,9421 8352,9418 8354,9416 8357,9413 8359,9410 8362,9407 8364,9403 8366,9400 8368,9397 8369,9393 8371,9390 8372,9386 8373,9383 8375,9379 8375,9375 8376,9371 8377,9368 8377,9364 8377,9360 8378,9356 Z"/>
 <path fill="none" stroke="rgb(232,115,49)" stroke-linejoin="round" d="M 8378,9356 L 8377,9352 8377,9348 8377,9345 8376,9341 8375,9337 8375,9333 8373,9330 8372,9326 8371,9322 8369,9319 8368,9316 8366,9312 8364,9309 8362,9306 8359,9303 8357,9300 8354,9297 8352,9294 8349,9291 8346,9289 8343,9286 8340,9284 8337,9282 8334,9280 8330,9278 8327,9276 8323,9275 8320,9273 8316,9272 8312,9271 8309,9270 8305,9269 8301,9269 8297,9268 8293,9268 8290,9268 8286,9268 8282,9268 8278,9269 8274,9269 8270,9270 8267,9271 8263,9272 8259,9273 8256,9275 8253,9276 8250,9278 8247,9280 8243,9282 8240,9284 8237,9286 8234,9289 8231,9291 8228,9294 8226,9297 8223,9300 8221,9303 8218,9306 8216,9309 8214,9312 8212,9316 8211,9319 8209,9322 8208,9326 8207,9330 8205,9333 8205,9337 8204,9341 8203,9345 8203,9348 8203,9352 8203,9356 8203,9360 8203,9364 8203,9368 8204,9371 8205,9375 8205,9379 8207,9383 8208,9386 8209,9390 8211,9393 8212,9397 8214,9400 8216,9403 8218,9407 8221,9410 8223,9413 8226,9416 8228,9418 8231,9421 8234,9424 8237,9426 8240,9428 8243,9430 8247,9432 8250,9434 8253,9436 8256,9437 8259,9439 8263,9440 8267,9441 8270,9442 8274,9443 8278,9443 8282,9444 8286,9444 8290,9444 8293,9444 8297,9444 8301,9443 8305,9443 8309,9442 8312,9441 8316,9440 8320,9439 8323,9437 8327,9436 8330,9434 8334,9432 8337,9430 8340,9428 8343,9426 8346,9424 8349,9421 8352,9418 8354,9416 8357,9413 8359,9410 8362,9407 8364,9403 8366,9400 8368,9397 8369,9393 8371,9390 8372,9386 8373,9383 8375,9379 8375,9375 8376,9371 8377,9368 8377,9364 8377,9360 8378,9356 Z"/>
 <path fill="rgb(232,115,49)" stroke="none" d="M 12662,9221 L 12661,9217 12661,9213 12661,9209 12660,9205 12659,9202 12659,9198 12657,9194 12656,9190 12655,9187 12653,9183 12652,9180 12650,9177 12648,9173 12646,9170 12643,9167 12641,9164 12638,9161 12636,9158 12633,9156 12630,9153 12627,9151 12624,9148 12621,9146 12618,9144 12614,9143 12611,9141 12607,9139 12604,9138 12600,9137 12596,9136 12593,9135 12589,9134 12585,9133 12581,9133 12577,9133 12574,9133 12570,9133 12567,9133 12563,9133 12559,9134 12555,9135 12552,9136 12548,9137 12544,9138 12541,9139 12537,9141 12534,9143 12531,9144 12527,9146 12524,9148 12521,9151 12518,9153 12515,9156 12512,9158 12510,9161 12507,9164 12505,9167 12502,9170 12500,9173 12498,9177 12496,9180 12495,9183 12493,9187 12492,9190 12491,9194 12489,9198 12489,9202 12488,9205 12487,9209 12487,9213 12487,9217 12487,9221 12487,9224 12487,9228 12487,9232 12488,9236 12489,9240 12489,9243 12491,9247 12492,9251 12493,9254 12495,9258 12496,9261 12498,9265 12500,9268 12502,9271 12505,9274 12507,9277 12510,9280 12512,9283 12515,9285 12518,9288 12521,9290 12524,9293 12527,9295 12531,9297 12534,9299 12537,9300 12541,9302 12544,9303 12548,9304 12552,9306 12555,9306 12559,9307 12563,9308 12567,9308 12570,9308 12574,9309 12577,9308 12581,9308 12585,9308 12589,9307 12593,9306 12596,9306 12600,9304 12604,9303 12607,9302 12611,9300 12614,9299 12618,9297 12621,9295 12624,9293 12627,9290 12630,9288 12633,9285 12636,9283 12638,9280 12641,9277 12643,9274 12646,9271 12648,9268 12650,9265 12652,9261 12653,9258 12655,9254 12656,9251 12657,9247 12659,9243 12659,9240 12660,9236 12661,9232 12661,9228 12661,9224 12662,9221 Z"/>
 <path fill="none" stroke="rgb(232,115,49)" stroke-linejoin="round" d="M 12662,9221 L 12661,9217 12661,9213 12661,9209 12660,9205 12659,9202 12659,9198 12657,9194 12656,9190 12655,9187 12653,9183 12652,9180 12650,9177 12648,9173 12646,9170 12643,9167 12641,9164 12638,9161 12636,9158 12633,9156 12630,9153 12627,9151 12624,9148 12621,9146 12618,9144 12614,9143 12611,9141 12607,9139 12604,9138 12600,9137 12596,9136 12593,9135 12589,9134 12585,9133 12581,9133 12577,9133 12574,9133 12570,9133 12567,9133 12563,9133 12559,9134 12555,9135 12552,9136 12548,9137 12544,9138 12541,9139 12537,9141 12534,9143 12531,9144 12527,9146 12524,9148 12521,9151 12518,9153 12515,9156 12512,9158 12510,9161 12507,9164 12505,9167 12502,9170 12500,9173 12498,9177 12496,9180 12495,9183 12493,9187 12492,9190 12491,9194 12489,9198 12489,9202 12488,9205 12487,9209 12487,9213 12487,9217 12487,9221 12487,9224 12487,9228 12487,9232 12488,9236 12489,9240 12489,9243 12491,9247 12492,9251 12493,9254 12495,9258 12496,9261 12498,9265 12500,9268 12502,9271 12505,9274 12507,9277 12510,9280 12512,9283 12515,9285 12518,9288 12521,9290 12524,9293 12527,9295 12531,9297 12534,9299 12537,9300 12541,9302 12544,9303 12548,9304 12552,9306 12555,9306 12559,9307 12563,9308 12567,9308 12570,9308 12574,9309 12577,9308 12581,9308 12585,9308 12589,9307 12593,9306 12596,9306 12600,9304 12604,9303 12607,9302 12611,9300 12614,9299 12618,9297 12621,9295 12624,9293 12627,9290 12630,9288 12633,9285 12636,9283 12638,9280 12641,9277 12643,9274 12646,9271 12648,9268 12650,9265 12652,9261 12653,9258 12655,9254 12656,9251 12657,9247 12659,9243 12659,9240 12660,9236 12661,9232 12661,9228 12661,9224 12662,9221 Z"/>
 <path fill="rgb(232,115,49)" stroke="none" d="M 16946,7728 L 16945,7724 16945,7720 16945,7716 16944,7712 16943,7709 16943,7705 16941,7701 16940,7697 16939,7694 16937,7690 16936,7687 16934,7684 16932,7680 16930,7677 16927,7674 16925,7671 16922,7668 16920,7665 16917,7663 16914,7660 16911,7658 16908,7656 16905,7653 16902,7651 16898,7650 16895,7648 16891,7646 16888,7645 16884,7644 16881,7643 16878,7642 16874,7641 16870,7640 16866,7640 16862,7640 16859,7640 16855,7640 16851,7640 16847,7640 16843,7641 16839,7642 16836,7643 16832,7644 16828,7645 16825,7646 16821,7648 16818,7650 16815,7651 16811,7653 16808,7656 16805,7658 16802,7660 16799,7663 16796,7665 16794,7668 16791,7671 16789,7674 16786,7677 16784,7680 16782,7684 16780,7687 16779,7690 16777,7694 16776,7697 16775,7701 16773,7705 16773,7709 16772,7712 16771,7716 16771,7720 16771,7724 16771,7728 16771,7731 16771,7735 16771,7739 16772,7743 16773,7747 16773,7750 16775,7754 16776,7758 16777,7761 16779,7765 16780,7768 16782,7772 16784,7775 16786,7778 16789,7781 16791,7784 16794,7787 16796,7790 16799,7792 16802,7795 16805,7797 16808,7800 16811,7802 16815,7804 16818,7806 16821,7807 16825,7809 16828,7810 16832,7812 16836,7813 16839,7814 16843,7814 16847,7815 16851,7815 16855,7816 16859,7816 16862,7816 16866,7815 16870,7815 16874,7814 16878,7814 16881,7813 16884,7812 16888,7810 16891,7809 16895,7807 16898,7806 16902,7804 16905,7802 16908,7800 16911,7797 16914,7795 16917,7792 16920,7790 16922,7787 16925,7784 16927,7781 16930,7778 16932,7775 16934,7772 16936,7768 16937,7765 16939,7761 16940,7758 16941,7754 16943,7750 16943,7747 16944,7743 16945,7739 16945,7735 16945,7731 16946,7728 Z"/>
 <path fill="none" stroke="rgb(232,115,49)" stroke-linejoin="round" d="M 16946,7728 L 16945,7724 16945,7720 16945,7716 16944,7712 16943,7709 16943,7705 16941,7701 16940,7697 16939,7694 16937,7690 16936,7687 16934,7684 16932,7680 16930,7677 16927,7674 16925,7671 16922,7668 16920,7665 16917,7663 16914,7660 16911,7658 16908,7656 16905,7653 16902,7651 16898,7650 16895,7648 16891,7646 16888,7645 16884,7644 16881,7643 16878,7642 16874,7641 16870,7640 16866,7640 16862,7640 16859,7640 16855,7640 16851,7640 16847,7640 16843,7641 16839,7642 16836,7643 16832,7644 16828,7645 16825,7646 16821,7648 16818,7650 16815,7651 16811,7653 16808,7656 16805,7658 16802,7660 16799,7663 16796,7665 16794,7668 16791,7671 16789,7674 16786,7677 16784,7680 16782,7684 16780,7687 16779,7690 16777,7694 16776,7697 16775,7701 16773,7705 16773,7709 16772,7712 16771,7716 16771,7720 16771,7724 16771,7728 16771,7731 16771,7735 16771,7739 16772,7743 16773,7747 16773,7750 16775,7754 16776,7758 16777,7761 16779,7765 16780,7768 16782,7772 16784,7775 16786,7778 16789,7781 16791,7784 16794,7787 16796,7790 16799,7792 16802,7795 16805,7797 16808,7800 16811,7802 16815,7804 16818,7806 16821,7807 16825,7809 16828,7810 16832,7812 16836,7813 16839,7814 16843,7814 16847,7815 16851,7815 16855,7816 16859,7816 16862,7816 16866,7815 16870,7815 16874,7814 16878,7814 16881,7813 16884,7812 16888,7810 16891,7809 16895,7807 16898,7806 16902,7804 16905,7802 16908,7800 16911,7797 16914,7795 16917,7792 16920,7790 16922,7787 16925,7784 16927,7781 16930,7778 16932,7775 16934,7772 16936,7768 16937,7765 16939,7761 16940,7758 16941,7754 16943,7750 16943,7747 16944,7743 16945,7739 16945,7735 16945,7731 16946,7728 Z"/>
 <text class="SVGTextShape"><tspan class="TextParagraph"><tspan class="TextPosition" x="3319" y="9875"><tspan font-family="Times New Roman, serif" font-size="317px" font-weight="400" fill="rgb(89,89,89)" stroke="none" style="white-space: pre">10&apos;000&apos;000</tspan></tspan></tspan></text>
 <text class="SVGTextShape"><tspan class="TextParagraph"><tspan class="TextPosition" x="7603" y="9875"><tspan font-family="Times New Roman, serif" font-size="317px" font-weight="400" fill="rgb(89,89,89)" stroke="none" style="white-space: pre">50&apos;000&apos;000</tspan></tspan></tspan></text>
 <text class="SVGTextShape"><tspan class="TextParagraph"><tspan class="TextPosition" x="11808" y="9875"><tspan font-family="Times New Roman, serif" font-size="317px" font-weight="400" fill="rgb(89,89,89)" stroke="none" style="white-space: pre">100&apos;000&apos;000</tspan></tspan></tspan></text>
 <text class="SVGTextShape"><tspan class="TextParagraph"><tspan class="TextPosition" x="16092" y="9875"><tspan font-family="Times New Roman, serif" font-size="317px" font-weight="400" fill="rgb(89,89,89)" stroke="none" style="white-space: pre">500&apos;000&apos;000</tspan></tspan></tspan></text>
 <text class="SVGTextShape"><tspan class="TextParagraph"><tspan class="TextPosition" x="1606" y="9590"><tspan font-family="Times New Roman, serif" font-size="317px" font-weight="400" fill="rgb(89,89,89)" stroke="none" style="white-space: pre">0</tspan></tspan></tspan></text>
 <text class="SVGTextShape"><tspan class="TextParagraph"><tspan class="TextPosition" x="1606" y="9043"><tspan font-family="Times New Roman, serif" font-size="317px" font-weight="400" fill="rgb(89,89,89)" stroke="none" style="white-space: pre">5</tspan></tspan></tspan></text>
 <text class="SVGTextShape"><tspan class="TextParagraph"><tspan class="TextPosition" x="1447" y="8496"><tspan font-family="Times New Roman, serif" font-size="317px" font-weight="400" fill="rgb(89,89,89)" stroke="none" style="white-space: pre">10</tspan></tspan></tspan></text>
 <text class="SVGTextShape"><tspan class="TextParagraph"><tspan class="TextPosition" x="1447" y="7948"><tspan font-family="Times New Roman, serif" font-size="317px" font-weight="400" fill="rgb(89,89,89)" stroke="none" style="white-space: pre">15</tspan></tspan></tspan></text>
 <text class="SVGTextShape"><tspan class="TextParagraph"><tspan class="TextPosition" x="1447" y="7402"><tspan font-family="Times New Roman, serif" font-size="317px" font-weight="400" fill="rgb(89,89,89)" stroke="none" style="white-space: pre">20</tspan></tspan></tspan></text>
 <text class="SVGTextShape"><tspan class="TextParagraph"><tspan class="TextPosition" x="1447" y="6854"><tspan font-family="Times New Roman, serif" font-size="317px" font-weight="400" fill="rgb(89,89,89)" stroke="none" style="white-space: pre">25</tspan></tspan></tspan></text>
 <text class="SVGTextShape"><tspan class="TextParagraph"><tspan class="TextPosition" x="1447" y="6307"><tspan font-family="Times New Roman, serif" font-size="317px" font-weight="400" fill="rgb(89,89,89)" stroke="none" style="white-space: pre">30</tspan></tspan></tspan></text>
 <text class="SVGTextShape"><tspan class="TextParagraph"><tspan class="TextPosition" x="1447" y="5760"><tspan font-family="Times New Roman, serif" font-size="317px" font-weight="400" fill="rgb(89,89,89)" stroke="none" style="white-space: pre">35</tspan></tspan></tspan></text>
 <text class="SVGTextShape"><tspan class="TextParagraph"><tspan class="TextPosition" x="1447" y="5213"><tspan font-family="Times New Roman, serif" font-size="317px" font-weight="400" fill="rgb(89,89,89)" stroke="none" style="white-space: pre">40</tspan></tspan></tspan></text>
 <text class="SVGTextShape"><tspan class="TextParagraph"><tspan class="TextPosition" x="1447" y="4665"><tspan font-family="Times New Roman, serif" font-size="317px" font-weight="400" fill="rgb(89,89,89)" stroke="none" style="white-space: pre">45</tspan></tspan></tspan></text>
 <text class="SVGTextShape"><tspan class="TextParagraph"><tspan class="TextPosition" x="1447" y="4119"><tspan font-family="Times New Roman, serif" font-size="317px" font-weight="400" fill="rgb(89,89,89)" stroke="none" style="white-space: pre">50</tspan></tspan></tspan></text>
 <text class="SVGTextShape"><tspan class="TextParagraph"><tspan class="TextPosition" x="1447" y="3571"><tspan font-family="Times New Roman, serif" font-size="317px" font-weight="400" fill="rgb(89,89,89)" stroke="none" style="white-space: pre">55</tspan></tspan></tspan></text>
 <text class="SVGTextShape"><tspan class="TextParagraph"><tspan class="TextPosition" x="1447" y="3025"><tspan font-family="Times New Roman, serif" font-size="317px" font-weight="400" fill="rgb(89,89,89)" stroke="none" style="white-space: pre">60</tspan></tspan></tspan></text>
 <text class="SVGTextShape"><tspan class="TextParagraph"><tspan class="TextPosition" x="1447" y="2477"><tspan font-family="Times New Roman, serif" font-size="317px" font-weight="400" fill="rgb(89,89,89)" stroke="none" style="white-space: pre">65</tspan></tspan></tspan></text>
 <text class="SVGTextShape"><tspan class="TextParagraph"><tspan class="TextPosition" x="1447" y="1930"><tspan font-family="Times New Roman, serif" font-size="317px" font-weight="400" fill="rgb(89,89,89)" stroke="none" style="white-space: pre">70</tspan></tspan></tspan></text>
 <text class="SVGTextShape"><tspan class="TextParagraph"><tspan class="TextPosition" x="5730" y="1098"><tspan font-family="Times New Roman, serif" font-size="633px" font-weight="700" fill="rgb(89,89,89)" stroke="none" style="white-space: pre">Benchmark: High Array Size</tspan></tspan></tspan></text>
 <path fill="rgb(20,95,130)" stroke="none" d="M 7951,10736 L 7551,10736 7551,10546 8350,10546 8350,10736 7951,10736 Z"/>
 <path fill="none" stroke="rgb(232,115,49)" stroke-width="79" stroke-linejoin="round" stroke-linecap="round" d="M 9982,10641 L 10781,10641"/>
 <path fill="rgb(232,115,49)" stroke="none" d="M 10476,10641 L 10475,10636 10475,10632 10475,10628 10474,10624 10473,10620 10472,10616 10471,10612 10470,10608 10468,10604 10467,10600 10465,10597 10463,10593 10461,10589 10458,10586 10456,10583 10453,10579 10451,10576 10448,10573 10445,10570 10442,10568 10438,10565 10435,10563 10432,10560 10428,10558 10424,10556 10421,10554 10417,10553 10413,10551 10410,10550 10406,10549 10402,10548 10398,10547 10394,10546 10390,10546 10386,10546 10382,10546 10377,10546 10373,10546 10369,10546 10365,10547 10361,10548 10357,10549 10353,10550 10349,10551 10345,10553 10341,10554 10338,10556 10334,10558 10330,10560 10327,10563 10324,10565 10320,10568 10317,10570 10314,10573 10311,10576 10309,10579 10306,10583 10304,10586 10301,10589 10299,10593 10297,10597 10295,10600 10294,10604 10292,10608 10291,10612 10290,10616 10289,10620 10288,10624 10287,10628 10287,10632 10287,10636 10287,10641 10287,10645 10287,10649 10287,10653 10288,10657 10289,10661 10290,10665 10291,10669 10292,10673 10294,10677 10295,10681 10297,10684 10299,10688 10301,10692 10304,10695 10306,10698 10309,10702 10311,10705 10314,10708 10317,10711 10320,10713 10324,10716 10327,10718 10330,10721 10334,10723 10338,10725 10341,10727 10345,10728 10349,10730 10353,10731 10357,10732 10361,10733 10365,10734 10369,10735 10373,10735 10377,10735 10382,10736 10386,10735 10390,10735 10394,10735 10398,10734 10402,10733 10406,10732 10410,10731 10413,10730 10417,10728 10421,10727 10424,10725 10428,10723 10432,10721 10435,10718 10438,10716 10442,10713 10445,10711 10448,10708 10451,10705 10453,10702 10456,10698 10458,10695 10461,10692 10463,10688 10465,10684 10467,10681 10468,10677 10470,10673 10471,10669 10472,10665 10473,10661 10474,10657 10475,10653 10475,10649 10475,10645 10476,10641 Z"/>
 <path fill="none" stroke="rgb(232,115,49)" stroke-linejoin="round" d="M 10476,10641 L 10475,10636 10475,10632 10475,10628 10474,10624 10473,10620 10472,10616 10471,10612 10470,10608 10468,10604 10467,10600 10465,10597 10463,10593 10461,10589 10458,10586 10456,10583 10453,10579 10451,10576 10448,10573 10445,10570 10442,10568 10438,10565 10435,10563 10432,10560 10428,10558 10424,10556 10421,10554 10417,10553 10413,10551 10410,10550 10406,10549 10402,10548 10398,10547 10394,10546 10390,10546 10386,10546 10382,10546 10377,10546 10373,10546 10369,10546 10365,10547 10361,10548 10357,10549 10353,10550 10349,10551 10345,10553 10341,10554 10338,10556 10334,10558 10330,10560 10327,10563 10324,10565 10320,10568 10317,10570 10314,10573 10311,10576 10309,10579 10306,10583 10304,10586 10301,10589 10299,10593 10297,10597 10295,10600 10294,10604 10292,10608 10291,10612 10290,10616 10289,10620 10288,10624 10287,10628 10287,10632 10287,10636 10287,10641 10287,10645 10287,10649 10287,10653 10288,10657 10289,10661 10290,10665 10291,10669 10292,10673 10294,10677 10295,10681 10297,10684 10299,10688 10301,10692 10304,10695 10306,10698 10309,10702 10311,10705 10314,10708 10317,10711 10320,10713 10324,10716 10327,10718 10330,10721 10334,10723 10338,10725 10341,10727 10345,10728 10349,10730 10353,10731 10357,10732 10361,10733 10365,10734 10369,10735 10373,10735 10377,10735 10382,10736 10386,10735 10390,10735 10394,10735 10398,10734 10402,10733 10406,10732 10410,10731 10413,10730 10417,10728 10421,10727 10424,10725 10428,10723 10432,10721 10435,10718 10438,10716 10442,10713 10445,10711 10448,10708 10451,10705 10453,10702 10456,10698 10458,10695 10461,10692 10463,10688 10465,10684 10467,10681 10468,10677 10470,10673 10471,10669 10472,10665 10473,10661 10474,10657 10475,10653 10475,10649 10475,10645 10476,10641 Z"/>
 <text class="SVGTextShape"><tspan class="TextParagraph"><tspan class="TextPosition" x="8450" y="10747"><tspan font-family="Times New Roman, serif" font-size="317px" font-weight="400" fill="rgb(89,89,89)" stroke="none" style="white-space: pre">Sequential</tspan></tspan></tspan></text>
 <text class="SVGTextShape"><tspan class="TextParagraph"><tspan class="TextPosition" x="10881" y="10747"><tspan font-family="Times New Roman, serif" font-size="317px" font-weight="400" fill="rgb(89,89,89)" stroke="none" style="white-space: pre">Parallel</tspan></tspan></tspan></text>
 <text class="SVGTextShape" transform="rotate(-90 -34307 -3714)"><tspan class="TextParagraph"><tspan class="TextPosition" x="874" y="6337"><tspan font-family="Times New Roman, serif" font-size="352px" font-weight="400" fill="rgb(89,89,89)" stroke="none" style="white-space: pre">seconds</tspan></tspan></tspan></text>
</svg>